<svg xmlns="http://www.w3.org/2000/svg" xmlns:xlink="http://www.w3.org/1999/xlink" width="500" zoomAndPan="magnify" viewBox="0 0 375 374.999991" height="500" preserveAspectRatio="xMidYMid meet" version="1.0"><path fill="#e31837" d="M 339.171875 205.816406 C 350.023438 196.578125 365.265625 187.597656 373.636719 184.363281 C 372.34375 183.542969 370.328125 182.363281 368.054688 181.082031 C 357.257812 184.621094 344.648438 192.472656 333.382812 201.351562 C 335.292969 202.789062 337.308594 204.277344 339.171875 205.816406 Z M 339.171875 205.816406 " fill-opacity="1" fill-rule="nonzero"/><path fill="#012169" d="M 334.210938 180.722656 C 332.609375 179.953125 330.851562 179.234375 329.507812 178.617188 C 325.425781 180.617188 320.101562 183.644531 313.386719 188.417969 C 314.832031 189.1875 316.382812 190.113281 318.035156 191.035156 C 323.203125 187.238281 328.421875 183.644531 334.210938 180.722656 Z M 334.210938 180.722656 " fill-opacity="1" fill-rule="nonzero"/><path fill="#e31837" d="M 343.871094 176.308594 C 341.910156 175.230469 335.089844 172.714844 330.386719 171.636719 C 328.992188 172.152344 327.027344 172.921875 325.683594 173.484375 C 327.390625 173.945312 333.746094 175.640625 339.171875 178.359375 C 340.566406 177.695312 342.527344 176.871094 343.871094 176.308594 Z M 343.871094 176.308594 " fill-opacity="1" fill-rule="nonzero"/><path fill="#012169" d="M 320.773438 175.640625 C 314.730469 178.410156 308.371094 182.210938 304.910156 184.414062 C 306.152344 184.980469 307.390625 185.441406 309.097656 186.261719 C 316.742188 181.132812 322.738281 178 325.113281 176.976562 C 323.410156 176.359375 321.808594 175.949219 320.773438 175.640625 Z M 320.773438 175.640625 " fill-opacity="1" fill-rule="nonzero"/><path fill="#e31837" d="M 348.417969 174.71875 C 349.816406 174.253906 351.417969 173.84375 352.8125 173.433594 C 348.78125 171.742188 343.71875 169.945312 339.171875 168.816406 C 338.445312 169.019531 336.277344 169.585938 334.777344 170.046875 C 336.328125 170.507812 341.445312 171.6875 348.417969 174.71875 Z M 322.945312 194.011719 C 324.597656 194.988281 326.355469 196.320312 328.058594 197.449219 C 339.375 188.726562 350.539062 182.003906 362.785156 178.207031 C 361.078125 177.335938 359.582031 176.5625 357.667969 175.640625 C 350.332031 177.488281 337.773438 182.464844 322.945312 194.011719 Z M 322.945312 194.011719 " fill-opacity="1" fill-rule="nonzero"/><path fill="#012169" d="M 1.585938 203.148438 L 9.855469 203.148438 C 14.039062 203.148438 16.003906 200.992188 16.003906 197.964844 C 16.003906 195.5 14.710938 193.859375 12.027344 193.34375 C 14.402344 192.78125 15.488281 191.34375 15.488281 189.238281 C 15.488281 186.570312 13.523438 184.414062 9.339844 184.414062 L 1.640625 184.414062 L 1.640625 203.148438 Z M 8.769531 195.191406 C 10.320312 195.191406 11.40625 195.960938 11.40625 197.503906 C 11.40625 199.144531 10.371094 199.8125 8.769531 199.8125 L 6.082031 199.8125 L 6.082031 195.140625 L 8.769531 195.140625 Z M 8.253906 187.699219 C 9.804688 187.699219 10.890625 188.367188 10.890625 189.90625 C 10.890625 191.445312 9.855469 192.113281 8.253906 192.113281 L 6.082031 192.113281 L 6.082031 187.699219 Z M 32.695312 184.363281 L 28.042969 184.363281 L 20.964844 203.148438 L 25.667969 203.148438 L 26.960938 199.246094 L 33.78125 199.246094 L 35.070312 203.148438 L 39.824219 203.148438 Z M 30.371094 188.878906 L 32.589844 195.808594 L 28.042969 195.808594 Z M 63.390625 184.363281 L 59.101562 184.363281 L 59.101562 196.9375 L 51.039062 184.363281 L 46.234375 184.363281 L 46.234375 203.148438 L 50.523438 203.148438 L 50.523438 190.625 L 58.582031 203.148438 L 63.390625 203.148438 Z M 83.179688 203.148438 L 76.980469 193.601562 L 76.980469 203.148438 L 72.378906 203.148438 L 72.378906 184.363281 L 76.980469 184.363281 L 76.980469 193.398438 L 82.871094 184.363281 L 87.984375 184.363281 L 81.785156 193.398438 L 88.554688 203.148438 Z M 104.832031 193.753906 C 104.832031 197.503906 107.105469 199.8125 110.050781 199.8125 C 112.996094 199.8125 115.269531 197.503906 115.269531 193.753906 C 115.269531 190.007812 112.996094 187.699219 110.050781 187.699219 C 107.105469 187.699219 104.832031 190.007812 104.832031 193.753906 Z M 99.972656 193.753906 C 100.027344 188.265625 103.902344 183.953125 110.050781 183.953125 C 116.199219 183.953125 120.074219 188.265625 120.125 193.753906 C 120.074219 199.246094 116.199219 203.558594 110.050781 203.558594 C 103.902344 203.558594 100.027344 199.246094 99.972656 193.753906 Z M 126.429688 203.148438 L 131.03125 203.148438 L 131.03125 195.757812 L 137.023438 195.757812 L 137.023438 192.164062 L 131.03125 192.164062 L 131.03125 187.957031 L 138.265625 187.957031 L 139.089844 184.363281 L 126.429688 184.363281 Z M 160.535156 184.363281 L 155.882812 184.363281 L 148.804688 203.148438 L 153.507812 203.148438 L 154.800781 199.246094 L 161.621094 199.246094 L 162.910156 203.148438 L 167.664062 203.148438 Z M 158.210938 188.878906 L 160.433594 195.808594 L 155.882812 195.808594 Z M 194.949219 184.363281 L 189.574219 184.363281 L 184.667969 194.527344 L 179.757812 184.363281 L 174.382812 184.363281 L 174.382812 203.148438 L 178.515625 203.148438 L 178.515625 190.574219 L 184.613281 203.148438 L 190.710938 190.574219 L 190.710938 203.148438 L 195 203.148438 Z M 203.890625 203.148438 L 216.808594 203.148438 L 216.808594 199.554688 L 208.488281 199.554688 L 208.488281 195.347656 L 215.050781 195.347656 L 215.050781 191.855469 L 208.488281 191.855469 L 208.488281 187.957031 L 216.085938 187.957031 L 216.910156 184.363281 L 203.890625 184.363281 Z M 234.324219 203.148438 L 239.335938 203.148438 L 234.636719 195.191406 C 237.21875 194.472656 238.457031 192.679688 238.457031 190.0625 C 238.457031 186.675781 236.390625 184.414062 231.742188 184.414062 L 224.457031 184.414062 L 224.457031 203.199219 L 228.949219 203.199219 L 228.949219 195.808594 L 230.191406 195.808594 Z M 230.863281 187.855469 C 232.773438 187.855469 233.757812 188.675781 233.757812 190.265625 C 233.757812 191.855469 232.773438 192.679688 230.863281 192.679688 L 228.898438 192.679688 L 228.898438 187.855469 Z M 246.210938 203.148438 L 250.808594 203.148438 L 250.808594 184.414062 L 246.210938 184.414062 Z M 273.441406 198.117188 C 271.683594 199.347656 270.132812 199.761719 268.53125 199.761719 C 265.019531 199.761719 262.539062 197.347656 262.539062 193.753906 C 262.539062 190.164062 264.96875 187.75 268.378906 187.75 C 269.929688 187.75 271.476562 188.164062 273.183594 189.394531 L 273.183594 185.132812 C 271.632812 184.261719 269.824219 183.902344 267.808594 183.902344 C 261.558594 183.902344 257.628906 188.214844 257.578125 193.703125 C 257.628906 199.246094 261.453125 203.507812 267.808594 203.507812 C 269.929688 203.507812 271.734375 203.148438 273.390625 202.273438 L 273.390625 198.117188 Z M 290.285156 184.363281 L 285.636719 184.363281 L 278.558594 203.148438 L 283.257812 203.148438 L 284.550781 199.246094 L 291.371094 199.246094 L 292.664062 203.148438 L 297.417969 203.148438 Z M 287.960938 188.878906 L 290.183594 195.808594 L 285.636719 195.808594 Z M 287.960938 188.878906 " fill-opacity="1" fill-rule="nonzero"/></svg>