<svg xmlns="http://www.w3.org/2000/svg" xmlns:xlink="http://www.w3.org/1999/xlink" width="500" zoomAndPan="magnify" viewBox="0 0 375 374.999991" height="500" preserveAspectRatio="xMidYMid meet" version="1.0"><path fill="#dd1e25" d="M 141.5625 233.175781 L 240.570312 233.175781 L 240.570312 134.175781 L 141.5625 134.175781 Z M 141.5625 233.175781 " fill-opacity="1" fill-rule="nonzero"/><path fill="#ffffff" d="M 226.886719 195.085938 C 226.886719 191.109375 225.246094 188.792969 222.214844 188.792969 C 219.179688 188.792969 217.539062 191.109375 217.539062 195.085938 C 217.539062 199.089844 219.15625 201.382812 222.214844 201.382812 C 225.269531 201.382812 226.886719 199.089844 226.886719 195.085938 M 230.574219 195.085938 C 230.574219 199.988281 227.089844 203.425781 222.214844 203.425781 C 217.359375 203.425781 213.851562 199.988281 213.851562 195.085938 C 213.851562 190.210938 217.378906 186.75 222.214844 186.75 C 227.066406 186.75 230.574219 190.210938 230.574219 195.085938 M 205.308594 195.804688 C 205.308594 196.253906 205.375 196.546875 205.554688 196.90625 L 208.230469 196.90625 L 208.230469 200.886719 C 207.382812 201.234375 206.496094 201.40625 205.578125 201.402344 C 202.34375 201.402344 200.65625 199.089844 200.65625 195.085938 C 200.65625 191.085938 202.34375 188.769531 205.398438 188.769531 C 207.445312 188.769531 208.636719 189.78125 209.332031 191.535156 L 209.578125 192.164062 L 211.199219 192.164062 L 211.199219 188.140625 C 209.175781 187.175781 207.351562 186.75 205.242188 186.75 C 200.296875 186.75 196.96875 190.050781 196.96875 195.109375 C 196.96875 200.191406 200.207031 203.425781 205.242188 203.425781 C 207.242188 203.425781 209.308594 202.863281 211.535156 201.761719 L 211.535156 194.75 L 205.554688 194.75 C 205.375 195.109375 205.308594 195.378906 205.308594 195.808594 M 191.640625 191.714844 C 191.640625 190.074219 190.628906 189.199219 188.605469 189.199219 L 185.953125 189.199219 L 185.953125 194.253906 L 188.605469 194.253906 C 190.605469 194.253906 191.640625 193.332031 191.640625 191.714844 M 174.039062 196.300781 L 171.839844 190.34375 L 169.636719 196.300781 Z M 196 201.199219 C 196.136719 201.449219 196.203125 201.738281 196.203125 202.121094 C 196.203125 202.503906 196.136719 202.796875 196 203.042969 C 195.417969 203.117188 194.835938 203.15625 194.25 203.15625 C 192.066406 203.15625 191.011719 202.257812 190.765625 200.167969 L 190.675781 199.378906 C 190.40625 197.109375 189.664062 196.234375 187.191406 196.234375 L 185.957031 196.234375 L 185.957031 201.019531 L 188.089844 201.019531 L 188.089844 202.976562 L 173.949219 202.976562 L 173.949219 201.019531 L 175.792969 201.019531 L 174.761719 198.210938 L 168.917969 198.210938 L 167.882812 201.019531 L 169.769531 201.019531 L 169.769531 202.976562 L 163.8125 202.976562 L 163.8125 201.019531 L 165.386719 201.019531 L 170.894531 187.242188 L 173.882812 187.242188 L 179.503906 201.019531 L 182.605469 201.019531 L 182.605469 189.199219 L 180.695312 189.199219 L 180.695312 187.242188 L 189.730469 187.242188 C 192.945312 187.242188 195.035156 188.839844 195.035156 191.402344 C 195.035156 193.941406 192.945312 195.289062 190.921875 195.378906 L 190.921875 195.445312 C 192.96875 195.605469 193.800781 196.75 194 198.523438 L 194.09375 199.359375 C 194.226562 200.660156 194.496094 201.246094 195.53125 201.246094 C 195.6875 201.246094 195.84375 201.230469 196 201.199219 M 161.746094 189.199219 C 163.25 189.199219 163.765625 189.851562 164.261719 191.738281 L 164.417969 192.34375 L 166.039062 192.34375 L 166.039062 187.242188 L 152.484375 187.242188 L 152.484375 189.199219 L 154.394531 189.199219 L 154.394531 201.019531 L 152.484375 201.019531 L 152.484375 202.976562 L 159.992188 202.976562 L 159.992188 201.019531 L 157.742188 201.019531 L 157.742188 196.433594 L 162.375 196.433594 C 162.554688 196.054688 162.621094 195.761719 162.621094 195.3125 C 162.621094 194.886719 162.554688 194.613281 162.375 194.234375 L 157.742188 194.234375 L 157.742188 189.199219 Z M 230.035156 174.746094 C 230.035156 172.273438 228.53125 170.566406 225.695312 169.914062 L 222.84375 169.261719 C 221.179688 168.878906 220.484375 168.226562 220.484375 167.125 C 220.484375 165.800781 221.539062 164.96875 223.605469 164.96875 C 225.675781 164.96875 226.886719 165.710938 227.359375 167.464844 L 227.5625 168.226562 L 229.179688 168.226562 L 229.179688 164.339844 C 227.359375 163.417969 225.425781 162.945312 223.472656 162.945312 C 219.628906 162.945312 217.15625 164.789062 217.15625 167.753906 C 217.15625 170.046875 218.59375 171.734375 221.359375 172.339844 L 224.214844 172.96875 C 226.03125 173.375 226.707031 174.09375 226.707031 175.285156 C 226.707031 176.746094 225.605469 177.554688 223.402344 177.554688 C 220.910156 177.554688 219.628906 176.566406 219.066406 174.675781 L 218.773438 173.710938 L 217.15625 173.710938 L 217.15625 178.117188 C 219.203125 179.128906 221.15625 179.578125 223.785156 179.578125 C 227.5625 179.578125 230.035156 177.691406 230.035156 174.746094 M 215.648438 173.757812 L 214.03125 173.757812 L 213.851562 174.542969 C 213.402344 176.542969 212.773438 177.171875 211.289062 177.171875 L 208.164062 177.171875 L 208.164062 165.351562 L 210.296875 165.351562 L 210.296875 163.394531 L 202.90625 163.394531 L 202.90625 165.351562 L 204.8125 165.351562 L 204.8125 177.171875 L 202.90625 177.171875 L 202.90625 179.128906 L 215.648438 179.128906 Z M 201.488281 173.757812 L 199.867188 173.757812 L 199.6875 174.542969 C 199.238281 176.542969 198.609375 177.171875 197.125 177.171875 L 194 177.171875 L 194 165.351562 L 196.136719 165.351562 L 196.136719 163.394531 L 188.742188 163.394531 L 188.742188 165.351562 L 190.652344 165.351562 L 190.652344 177.171875 L 188.742188 177.171875 L 188.742188 179.128906 L 201.488281 179.128906 Z M 155.742188 179.128906 L 151.789062 165.351562 L 149.988281 165.351562 L 149.988281 163.394531 L 157.316406 163.394531 L 157.316406 165.351562 L 155.203125 165.351562 L 157.835938 174.835938 L 160.980469 163.394531 L 164.214844 163.394531 L 167.433594 174.855469 L 170.015625 165.351562 L 167.8125 165.351562 L 167.8125 163.394531 L 186.875 163.394531 L 186.875 168.496094 L 185.257812 168.496094 L 185.101562 167.890625 C 184.605469 166.003906 184.089844 165.351562 182.582031 165.351562 L 178.851562 165.351562 L 178.851562 170.09375 L 183.371094 170.09375 C 183.550781 170.472656 183.617188 170.746094 183.617188 171.171875 C 183.617188 171.621094 183.550781 171.914062 183.371094 172.296875 L 178.851562 172.296875 L 178.851562 177.171875 L 182.742188 177.171875 C 184.199219 177.171875 184.851562 176.542969 185.300781 174.542969 L 185.484375 173.753906 L 187.101562 173.753906 L 187.101562 179.128906 L 173.589844 179.128906 L 173.589844 177.171875 L 175.503906 177.171875 L 175.503906 165.351562 L 172.398438 165.351562 L 168.464844 179.128906 L 165.339844 179.128906 L 162.148438 167.710938 L 158.867188 179.128906 Z M 155.742188 179.128906 " fill-opacity="1" fill-rule="nonzero"/></svg>