<svg width="256" height="256" viewBox="0 0 256 256" fill="none" xmlns="http://www.w3.org/2000/svg">
<g clip-path="url(#clip0_95_1286)">
<path d="M159.877 9H225.857C237.455 9.00014 246.857 18.4021 246.857 30V226C246.857 237.598 237.455 247 225.857 247H137.662C137.395 247 137.249 246.937 137.151 246.878C137.03 246.804 136.896 246.677 136.792 246.493C136.688 246.309 136.647 246.128 136.646 245.985C136.646 245.872 136.667 245.714 136.805 245.485L151.461 221.059V221.058C153.076 218.365 153.333 215.07 152.154 212.159L137.867 176.887C137.769 176.645 137.769 176.375 137.867 176.134L152.686 139.762C153.643 137.411 153.671 134.784 152.764 132.413L129.919 72.7373C129.822 72.4847 129.832 72.2033 129.946 71.958L158.97 9.57812C159.134 9.22548 159.488 9 159.877 9Z" stroke="url(#paint0_linear_95_1286)" stroke-width="18" stroke-linecap="round" stroke-linejoin="round"/>
<path d="M30 9H120.612C121.336 9 121.82 9.74494 121.526 10.4062L95.9424 67.9707H95.9414C94.8762 70.3675 94.7959 73.087 95.7168 75.543L118.213 135.532C118.3 135.766 118.298 136.023 118.205 136.255L103.792 172.286C102.838 174.67 102.838 177.33 103.792 179.714L117.823 214.79C117.938 215.077 117.913 215.401 117.757 215.668L99.6387 246.507C99.4591 246.812 99.1316 247 98.7773 247H30C18.402 247 9 237.598 9 226V30C9 18.402 18.402 9 30 9Z" stroke="url(#paint1_linear_95_1286)" stroke-width="18" stroke-linecap="round" stroke-linejoin="round"/>
<path d="M37 55C37 55 56.9327 55 73 55M37 92H69.8571M37 129H85M37 164.143C37 164.143 46.9327 164.143 63 164.143M37 199C37 199 62.4327 199 78.5 199" stroke="url(#paint2_linear_95_1286)" stroke-width="18" stroke-linecap="round" stroke-linejoin="round"/>
<path d="M177 55H219M172 92H219M185 129H219M171 164.143H219M181 199H219" stroke="url(#paint3_linear_95_1286)" stroke-width="18" stroke-linecap="round" stroke-linejoin="round"/>
</g>
<defs>
<linearGradient id="paint0_linear_95_1286" x1="196.429" y1="0" x2="196.429" y2="256" gradientUnits="userSpaceOnUse">
<stop stop-color="white"/>
<stop offset="1" stop-color="white"/>
</linearGradient>
<linearGradient id="paint1_linear_95_1286" x1="59.4285" y1="0" x2="59.4285" y2="256" gradientUnits="userSpaceOnUse">
<stop stop-color="white"/>
<stop offset="1" stop-color="white"/>
</linearGradient>
<linearGradient id="paint2_linear_95_1286" x1="59.4285" y1="0" x2="59.4285" y2="256" gradientUnits="userSpaceOnUse">
<stop stop-color="white"/>
<stop offset="1" stop-color="white"/>
</linearGradient>
<linearGradient id="paint3_linear_95_1286" x1="196.429" y1="0" x2="196.429" y2="256" gradientUnits="userSpaceOnUse">
<stop stop-color="white"/>
<stop offset="1" stop-color="white"/>
</linearGradient>
<clipPath id="clip0_95_1286">
<rect width="256" height="256" fill="white"/>
</clipPath>
</defs>
</svg>
