<svg width="1824" height="321" viewBox="0 0 1824 321" fill="#FFFFFF" xmlns="http://www.w3.org/2000/svg">
<path d="M320 8C320 8 321.214 19.3299 325.942 24.058C330.67 28.7861 342 30 342 30C342 30 330.67 31.2139 325.942 35.942C321.214 40.6701 320 52 320 52C320 52 318.786 40.6701 314.058 35.942C309.33 31.2139 298 30 298 30C298 30 309.33 28.7861 314.058 24.058C318.786 19.3299 320 8 320 8Z" fill="#FFFFFF"/>
<path d="M352 36C352 36 352.441 40.1199 354.161 41.8393C355.88 43.5586 360 44 360 44C360 44 355.88 44.4414 354.161 46.1607C352.441 47.8801 352 52 352 52C352 52 351.559 47.8801 349.839 46.1607C348.12 44.4414 344 44 344 44C344 44 348.12 43.5586 349.839 41.8393C351.559 40.1199 352 36 352 36Z" fill="#FFFFFF"/>
<path d="M306 54C306 54 306.441 58.1199 308.161 59.8393C309.88 61.5586 314 62 314 62C314 62 309.88 62.4414 308.161 64.1607C306.441 65.8801 306 70 306 70C306 70 305.559 65.8801 303.839 64.1607C302.12 62.4414 298 62 298 62C298 62 302.12 61.5586 303.839 59.8393C305.559 58.1199 306 54 306 54Z" fill="#FFFFFF"/>
<g clip-path="url(#clip0_8_161)">
<path d="M191.877 41H257.857C269.455 41.0001 278.857 50.4021 278.857 62V258C278.857 269.598 269.455 279 257.857 279H169.662C169.395 279 169.249 278.937 169.151 278.878C169.03 278.804 168.896 278.677 168.792 278.493C168.688 278.309 168.647 278.128 168.646 277.985C168.646 277.872 168.667 277.714 168.805 277.485L183.461 253.059V253.058C185.076 250.365 185.333 247.07 184.154 244.159L169.867 208.887C169.769 208.645 169.769 208.375 169.867 208.134L184.686 171.762C185.643 169.411 185.671 166.784 184.764 164.413L161.919 104.737C161.822 104.485 161.832 104.203 161.946 103.958L190.97 41.5781C191.134 41.2255 191.488 41 191.877 41Z" stroke="url(#paint3_linear_8_161)" stroke-width="18" stroke-linecap="round" stroke-linejoin="round"/>
<path d="M62 41H152.612C153.336 41 153.82 41.7449 153.526 42.4062L127.942 99.9707H127.941C126.876 102.367 126.796 105.087 127.717 107.543L150.213 167.532C150.3 167.766 150.298 168.023 150.205 168.255L135.792 204.286C134.838 206.67 134.838 209.33 135.792 211.714L149.823 246.79C149.938 247.077 149.913 247.401 149.757 247.668L131.639 278.507C131.459 278.812 131.132 279 130.777 279H62C50.402 279 41 269.598 41 258V62C41 50.402 50.402 41 62 41Z" stroke="url(#paint4_linear_8_161)" stroke-width="18" stroke-linecap="round" stroke-linejoin="round"/>
<path d="M69 87C69 87 88.9327 87 105 87M69 124H101.857M69 161H117M69 196.143C69 196.143 78.9327 196.143 95 196.143M69 231C69 231 94.4327 231 110.5 231" stroke="url(#paint5_linear_8_161)" stroke-width="18" stroke-linecap="round" stroke-linejoin="round"/>
<path d="M209 87H251M204 124H251M217 161H251M203 196.143H251M213 231H251" stroke="url(#paint6_linear_8_161)" stroke-width="18" stroke-linecap="round" stroke-linejoin="round"/>
</g>
<path d="M474.42 206.59C474.42 217.39 471.63 226.48 466.05 233.86C460.47 241.06 452.91 246.55 443.37 250.33C434.01 254.11 423.75 256 412.59 256H319.98V64.3H422.58C431.58 64.3 439.32 66.73 445.8 71.59C452.46 76.27 457.5 82.39 460.92 89.95C464.52 97.33 466.32 105.07 466.32 113.17C466.32 122.35 463.98 131.08 459.3 139.36C454.62 147.64 447.78 153.76 438.78 157.72C449.76 160.96 458.4 166.81 464.7 175.27C471.18 183.73 474.42 194.17 474.42 206.59ZM436.89 199.57C436.89 194.71 435.9 190.39 433.92 186.61C431.94 182.65 429.24 179.59 425.82 177.43C422.58 175.09 418.8 173.92 414.48 173.92H357.24V224.41H412.59C417.09 224.41 421.14 223.33 424.74 221.17C428.52 218.83 431.49 215.77 433.65 211.99C435.81 208.21 436.89 204.07 436.89 199.57ZM357.24 96.16V144.49H406.92C411.06 144.49 414.84 143.5 418.26 141.52C421.68 139.54 424.38 136.75 426.36 133.15C428.52 129.55 429.6 125.23 429.6 120.19C429.6 115.33 428.61 111.1 426.63 107.5C424.83 103.9 422.31 101.11 419.07 99.13C416.01 97.15 412.5 96.16 408.54 96.16H357.24ZM476.766 214.15C476.766 204.97 479.286 196.96 484.326 190.12C489.546 183.1 496.746 177.7 505.926 173.92C515.106 170.14 525.636 168.25 537.516 168.25C543.456 168.25 549.486 168.7 555.606 169.6C561.726 170.5 567.036 171.94 571.536 173.92V166.36C571.536 157.36 568.836 150.43 563.436 145.57C558.216 140.71 550.386 138.28 539.946 138.28C532.206 138.28 524.826 139.63 517.806 142.33C510.786 145.03 503.406 148.99 495.666 154.21L484.056 130.45C493.416 124.33 502.956 119.74 512.676 116.68C522.576 113.62 532.926 112.09 543.726 112.09C563.886 112.09 579.546 117.13 590.706 127.21C602.046 137.29 607.716 151.69 607.716 170.41V215.5C607.716 219.28 608.346 221.98 609.606 223.6C611.046 225.22 613.296 226.21 616.356 226.57V256C613.116 256.54 610.146 256.99 607.446 257.35C604.926 257.71 602.766 257.89 600.966 257.89C593.766 257.89 588.276 256.27 584.496 253.03C580.896 249.79 578.646 245.83 577.746 241.15L576.936 233.86C570.816 241.78 563.166 247.9 553.986 252.22C544.806 256.54 535.446 258.7 525.906 258.7C516.546 258.7 508.086 256.81 500.526 253.03C493.146 249.07 487.296 243.76 482.976 237.1C478.836 230.26 476.766 222.61 476.766 214.15ZM564.786 221.44C566.766 219.28 568.386 217.12 569.646 214.96C570.906 212.8 571.536 210.82 571.536 209.02V194.71C567.216 192.91 562.536 191.56 557.496 190.66C552.456 189.58 547.686 189.04 543.186 189.04C533.826 189.04 526.086 191.11 519.966 195.25C514.026 199.21 511.056 204.52 511.056 211.18C511.056 214.78 512.046 218.2 514.026 221.44C516.006 224.68 518.886 227.29 522.666 229.27C526.446 231.25 530.946 232.24 536.166 232.24C541.566 232.24 546.876 231.25 552.096 229.27C557.316 227.11 561.546 224.5 564.786 221.44ZM759.515 256H723.335V176.62C723.335 165.28 721.355 157 717.395 151.78C713.435 146.56 707.945 143.95 700.925 143.95C696.065 143.95 691.115 145.21 686.075 147.73C681.215 150.25 676.805 153.76 672.845 158.26C668.885 162.58 666.005 167.62 664.205 173.38V256H628.025V114.52H660.695V140.71C664.295 134.59 668.885 129.46 674.465 125.32C680.045 121 686.435 117.76 693.635 115.6C701.015 113.26 708.755 112.09 716.855 112.09C725.675 112.09 732.875 113.71 738.455 116.95C744.215 120.01 748.535 124.24 751.415 129.64C754.475 134.86 756.545 140.8 757.625 147.46C758.885 154.12 759.515 160.87 759.515 167.71V256ZM874.134 256L832.824 194.98L813.654 213.88V256H777.474V58.9H813.654V178.24L870.624 114.79H908.964L856.314 174.73L912.744 256H874.134ZM901.948 158.8C901.948 147.1 904.018 135.67 908.158 124.51C912.478 113.17 918.688 102.91 926.788 93.73C934.888 84.37 944.788 76.99 956.488 71.59C968.188 66.01 981.508 63.22 996.448 63.22C1014.09 63.22 1029.3 67.09 1042.08 74.83C1055.04 82.57 1064.67 92.65 1070.97 105.07L1042.35 124.78C1039.11 117.58 1034.88 111.91 1029.66 107.77C1024.44 103.45 1018.86 100.48 1012.92 98.86C1006.98 97.06 1001.13 96.16 995.368 96.16C986.008 96.16 977.818 98.05 970.798 101.83C963.958 105.61 958.198 110.56 953.518 116.68C948.838 122.8 945.328 129.64 942.988 137.2C940.828 144.76 939.748 152.32 939.748 159.88C939.748 168.34 941.098 176.53 943.798 184.45C946.498 192.19 950.278 199.12 955.138 205.24C960.178 211.18 966.118 215.95 972.958 219.55C979.978 222.97 987.628 224.68 995.908 224.68C1001.85 224.68 1007.88 223.69 1014 221.71C1020.12 219.73 1025.79 216.58 1031.01 212.26C1036.23 207.94 1040.28 202.36 1043.16 195.52L1073.67 213.07C1069.89 222.61 1063.68 230.71 1055.04 237.37C1046.58 244.03 1037.04 249.07 1026.42 252.49C1015.8 255.91 1005.27 257.62 994.828 257.62C981.148 257.62 968.638 254.83 957.298 249.25C945.958 243.49 936.148 235.93 927.868 226.57C919.768 217.03 913.378 206.41 908.698 194.71C904.198 182.83 901.948 170.86 901.948 158.8ZM1081.38 58.9H1117.56V210.64C1117.56 217.12 1118.64 221.53 1120.8 223.87C1122.96 226.03 1125.93 227.11 1129.71 227.11C1132.59 227.11 1135.56 226.75 1138.62 226.03C1141.68 225.31 1144.38 224.41 1146.72 223.33L1151.58 250.87C1146.72 253.21 1141.05 255.01 1134.57 256.27C1128.09 257.53 1122.24 258.16 1117.02 258.16C1105.68 258.16 1096.86 255.19 1090.56 249.25C1084.44 243.13 1081.38 234.49 1081.38 223.33V58.9ZM1171.12 214.15C1171.12 204.97 1173.64 196.96 1178.68 190.12C1183.9 183.1 1191.1 177.7 1200.28 173.92C1209.46 170.14 1219.99 168.25 1231.87 168.25C1237.81 168.25 1243.84 168.7 1249.96 169.6C1256.08 170.5 1261.39 171.94 1265.89 173.92V166.36C1265.89 157.36 1263.19 150.43 1257.79 145.57C1252.57 140.71 1244.74 138.28 1234.3 138.28C1226.56 138.28 1219.18 139.63 1212.16 142.33C1205.14 145.03 1197.76 148.99 1190.02 154.21L1178.41 130.45C1187.77 124.33 1197.31 119.74 1207.03 116.68C1216.93 113.62 1227.28 112.09 1238.08 112.09C1258.24 112.09 1273.9 117.13 1285.06 127.21C1296.4 137.29 1302.07 151.69 1302.07 170.41V215.5C1302.07 219.28 1302.7 221.98 1303.96 223.6C1305.4 225.22 1307.65 226.21 1310.71 226.57V256C1307.47 256.54 1304.5 256.99 1301.8 257.35C1299.28 257.71 1297.12 257.89 1295.32 257.89C1288.12 257.89 1282.63 256.27 1278.85 253.03C1275.25 249.79 1273 245.83 1272.1 241.15L1271.29 233.86C1265.17 241.78 1257.52 247.9 1248.34 252.22C1239.16 256.54 1229.8 258.7 1220.26 258.7C1210.9 258.7 1202.44 256.81 1194.88 253.03C1187.5 249.07 1181.65 243.76 1177.33 237.1C1173.19 230.26 1171.12 222.61 1171.12 214.15ZM1259.14 221.44C1261.12 219.28 1262.74 217.12 1264 214.96C1265.26 212.8 1265.89 210.82 1265.89 209.02V194.71C1261.57 192.91 1256.89 191.56 1251.85 190.66C1246.81 189.58 1242.04 189.04 1237.54 189.04C1228.18 189.04 1220.44 191.11 1214.32 195.25C1208.38 199.21 1205.41 204.52 1205.41 211.18C1205.41 214.78 1206.4 218.2 1208.38 221.44C1210.36 224.68 1213.24 227.29 1217.02 229.27C1220.8 231.25 1225.3 232.24 1230.52 232.24C1235.92 232.24 1241.23 231.25 1246.45 229.27C1251.67 227.11 1255.9 224.5 1259.14 221.44ZM1374.49 258.7C1362.43 258.7 1350.91 256.72 1339.93 252.76C1328.95 248.8 1319.5 242.95 1311.58 235.21L1324.54 211.72C1333 218.56 1341.28 223.6 1349.38 226.84C1357.66 230.08 1365.58 231.7 1373.14 231.7C1380.16 231.7 1385.74 230.44 1389.88 227.92C1394.2 225.4 1396.36 221.62 1396.36 216.58C1396.36 213.16 1395.19 210.55 1392.85 208.75C1390.51 206.77 1387.09 205.06 1382.59 203.62C1378.27 202.18 1372.96 200.56 1366.66 198.76C1356.22 195.34 1347.49 192.01 1340.47 188.77C1333.45 185.53 1328.14 181.48 1324.54 176.62C1321.12 171.58 1319.41 165.19 1319.41 157.45C1319.41 148.09 1321.75 140.08 1326.43 133.42C1331.29 126.58 1337.95 121.27 1346.41 117.49C1355.05 113.71 1365.13 111.82 1376.65 111.82C1386.73 111.82 1396.27 113.44 1405.27 116.68C1414.27 119.74 1422.46 124.78 1429.84 131.8L1415.26 154.75C1408.06 149.17 1401.22 145.12 1394.74 142.6C1388.26 139.9 1381.69 138.55 1375.03 138.55C1371.25 138.55 1367.65 139 1364.23 139.9C1360.99 140.8 1358.29 142.33 1356.13 144.49C1354.15 146.47 1353.16 149.35 1353.16 153.13C1353.16 156.55 1354.06 159.25 1355.86 161.23C1357.84 163.03 1360.72 164.65 1364.5 166.09C1368.46 167.53 1373.23 169.15 1378.81 170.95C1390.15 174.19 1399.69 177.52 1407.43 180.94C1415.35 184.36 1421.29 188.59 1425.25 193.63C1429.21 198.49 1431.19 205.24 1431.19 213.88C1431.19 227.92 1426.06 238.9 1415.8 246.82C1405.54 254.74 1391.77 258.7 1374.49 258.7ZM1442.3 256V114.52H1478.48V256H1442.3ZM1442.3 94.81V58.9H1478.48V94.81H1442.3ZM1506.25 256V149.62H1487.62V122.08H1506.25V113.44C1506.25 101.74 1508.14 91.66 1511.92 83.2C1515.88 74.56 1521.37 67.9 1528.39 63.22C1535.59 58.54 1543.96 56.2 1553.5 56.2C1559.26 56.2 1565.02 56.92 1570.78 58.36C1576.72 59.8 1582.57 61.87 1588.33 64.57L1581.04 91.84C1578.34 90.4 1575.19 89.23 1571.59 88.33C1567.99 87.25 1564.57 86.71 1561.33 86.71C1555.21 86.71 1550.53 88.87 1547.29 93.19C1544.05 97.51 1542.43 103.81 1542.43 112.09V122.08H1576.99V149.62H1542.43V256H1506.25Z" fill="#FFFFFF"/>
<path d="M1640.09 64.3H1677.89L1748.36 256H1710.02L1692.2 208.21H1625.24L1607.69 256H1569.35L1640.09 64.3ZM1685.45 182.02L1658.99 102.91L1631.45 182.02H1685.45ZM1755.89 256V64.3H1793.15V256H1755.89Z" fill="#FFFFFF"/>
<defs>
<linearGradient id="paint0_linear_8_161" x1="320" y1="8" x2="320" y2="52" gradientUnits="userSpaceOnUse">
<stop stop-color="#F83293"/>
<stop offset="1" stop-color="#FF5B82"/>
</linearGradient>
<linearGradient id="paint1_linear_8_161" x1="352" y1="36" x2="352" y2="52" gradientUnits="userSpaceOnUse">
<stop stop-color="#F83293"/>
<stop offset="1" stop-color="#FF5B82"/>
</linearGradient>
<linearGradient id="paint2_linear_8_161" x1="306" y1="54" x2="306" y2="70" gradientUnits="userSpaceOnUse">
<stop stop-color="#F83293"/>
<stop offset="1" stop-color="#FF5B82"/>
</linearGradient>
<linearGradient id="paint3_linear_8_161" x1="228.429" y1="32" x2="228.429" y2="288" gradientUnits="userSpaceOnUse">
<stop stop-color="#FF5B82"/>
<stop offset="1" stop-color="#F83293"/>
</linearGradient>
<linearGradient id="paint4_linear_8_161" x1="91.4285" y1="32" x2="91.4285" y2="288" gradientUnits="userSpaceOnUse">
<stop stop-color="#F83293"/>
<stop offset="1" stop-color="#FF5B82"/>
</linearGradient>
<linearGradient id="paint5_linear_8_161" x1="91.4285" y1="32" x2="91.4285" y2="288" gradientUnits="userSpaceOnUse">
<stop stop-color="#F83293"/>
<stop offset="1" stop-color="#FF5B82"/>
</linearGradient>
<linearGradient id="paint6_linear_8_161" x1="228.429" y1="32" x2="228.429" y2="288" gradientUnits="userSpaceOnUse">
<stop stop-color="#FF5B82"/>
<stop offset="1" stop-color="#F83293"/>
</linearGradient>
<linearGradient id="paint7_linear_8_161" x1="1691" y1="66.4063" x2="1691" y2="255.6" gradientUnits="userSpaceOnUse">
<stop stop-color="#FF5B82"/>
<stop offset="1" stop-color="#F83293"/>
</linearGradient>
<clipPath id="clip0_8_161">
<rect width="256" height="256" fill="#FFFFFF" transform="translate(32 32)"/>
</clipPath>
</defs>
</svg>
